# xmcd
#
# Track frame offsets: 
#        150
#        23908
#        45114
#        63403
#        81698
#        99255
#        116638
#        132971
#        146752
#
# Disc length: 2191 seconds
#
# Revision: 0
# Processed by: cddbd v1.5.2PL0 Copyright (c) Steve Scherf et al.
# Submitted via: ExactAudioCopyFreeDBPlugin 1.0
#
DISCID=77088d09
DTITLE=Norman Feels - Norman Feels
DYEAR=1973
DGENRE=Soul
TTITLE0=Don't
TTITLE1=Till I Found You
TTITLE2=They Said It Couldn't Be Done
TTITLE3=Something In Me
TTITLE4=My World Is Empty Without You
TTITLE5=Yes You Did
TTITLE6=Something About You (Makes Me Love You)
TTITLE7=Today
TTITLE8=Everything Is Going Our Way
EXTD=
EXTT0=
EXTT1=
EXTT2=
EXTT3=
EXTT4=
EXTT5=
EXTT6=
EXTT7=
EXTT8=
PLAYORDER=
